<?xml version="1.0" standalone="no"?>
<!DOCTYPE svg PUBLIC "-//W3C//DTD SVG 20010904//EN"
 "http://www.w3.org/TR/2001/REC-SVG-20010904/DTD/svg10.dtd">
<svg version="1.0" xmlns="http://www.w3.org/2000/svg"
 width="500.000000pt" height="500.000000pt" viewBox="0 0 500.000000 500.000000"
 preserveAspectRatio="xMidYMid meet">

<g transform="translate(0.000000,500.000000) scale(0.100000,-0.100000)"
fill="#000000" stroke="none">
<path d="M0 2500 l0 -2500 2500 0 2500 0 0 2500 0 2500 -2500 0 -2500 0 0
-2500z m1932 89 c14 -8 15 -14 6 -33 -9 -21 -17 -24 -52 -23 -34 2 -41 -1 -41
-17 0 -13 12 -23 39 -33 59 -20 76 -40 76 -88 0 -77 -70 -119 -159 -95 -47 12
-58 28 -41 60 8 15 16 19 28 14 9 -4 33 -8 52 -8 25 -1 35 4 38 17 3 13 -11
24 -52 42 -68 30 -84 60 -64 115 23 61 104 84 170 49z m1238 -1 c64 -33 85
-67 85 -138 0 -63 -16 -95 -69 -134 -21 -16 -42 -21 -91 -21 -69 0 -99 15
-139 69 -29 39 -29 133 0 173 25 35 98 73 139 73 17 0 51 -10 75 -22z m-990
-23 c0 -32 -2 -35 -30 -35 l-30 0 0 -115 0 -115 -40 0 -40 0 0 114 0 115 -32
3 c-32 3 -35 8 -29 58 1 6 42 10 101 10 l100 0 0 -35z m110 -69 c0 -82 3 -108
16 -120 21 -21 40 -20 64 4 17 17 20 33 20 120 l0 100 40 0 40 0 0 -120 c0
-118 0 -120 -29 -152 -28 -31 -33 -33 -100 -33 -63 0 -73 3 -97 27 -23 22 -28
38 -33 100 -3 40 -5 97 -3 126 l3 52 40 0 39 0 0 -104z m409 83 c108 -60 108
-204 0 -259 -28 -15 -58 -20 -114 -20 l-75 0 0 143 c0 79 3 147 7 150 3 4 38
7 76 7 51 0 79 -5 106 -21z m191 -129 l0 -150 -35 0 -35 0 0 150 0 150 35 0
35 0 0 -150z m55 -300 c3 -6 -5 -10 -19 -10 -14 0 -28 -4 -31 -10 -4 -6 5 -10
19 -10 14 0 26 -4 26 -10 0 -5 -8 -10 -19 -10 -10 0 -21 -9 -24 -20 -3 -11
-10 -20 -16 -20 -16 0 -14 87 2 93 21 9 56 7 62 -3z m55 -40 c0 -27 -4 -50
-10 -50 -5 0 -10 23 -10 50 0 28 5 50 10 50 6 0 10 -22 10 -50z m86 -30 c13 0
24 -4 24 -10 0 -5 -16 -10 -35 -10 -35 0 -35 0 -35 43 0 57 14 71 18 18 3 -36
6 -41 28 -41z m120 59 c8 12 20 19 25 16 12 -8 12 -95 -1 -95 -5 0 -10 11 -10
25 0 26 -15 34 -23 13 -3 -10 -7 -10 -20 1 -15 12 -17 11 -17 -13 0 -14 -4
-26 -10 -26 -11 0 -14 83 -3 94 4 4 16 -3 26 -15 l18 -22 15 22z m118 15 c9
-3 14 -10 11 -15 -3 -4 -12 -6 -19 -3 -8 3 -17 1 -20 -4 -3 -6 6 -13 20 -16
37 -10 30 -51 -8 -51 -16 0 -28 5 -28 10 1 6 10 9 22 7 12 -2 18 0 14 7 -4 6
-14 11 -22 11 -20 0 -29 27 -14 45 14 17 21 18 44 9z m-914 -60 l0 -27 -67 6
c-38 4 -326 7 -640 7 -566 0 -573 0 -573 20 0 20 7 20 640 20 l640 0 0 -26z
m20 -197 c69 -54 65 -124 -10 -198 l-25 -24 43 -3 c41 -3 42 -4 42 -38 l0 -34
-115 0 c-63 0 -115 4 -115 8 0 4 23 30 51 57 64 64 91 107 87 142 -4 34 -37
39 -53 8 -8 -16 -18 -19 -47 -17 -32 3 -38 7 -38 26 0 46 55 86 120 86 25 0
52 -6 60 -13z m282 -17 c25 -26 29 -35 23 -63 -4 -17 -11 -37 -16 -43 -6 -8
-5 -14 4 -17 22 -8 38 -77 24 -106 -27 -56 -129 -82 -183 -47 -27 18 -58 72
-49 86 12 19 74 11 85 -10 13 -25 56 -26 69 -2 12 23 -4 52 -29 52 -29 0 -28
56 1 63 13 4 20 12 17 24 -4 23 -39 30 -50 9 -6 -10 -22 -16 -43 -16 -29 0
-35 4 -35 21 0 11 13 34 29 50 24 24 38 29 76 29 38 0 52 -5 77 -30z"/>
<path d="M3039 2511 c-18 -14 -24 -29 -24 -61 0 -32 6 -47 24 -61 54 -44 141
-6 141 61 0 67 -87 105 -141 61z"/>
<path d="M2600 2451 c0 -80 0 -81 25 -81 14 0 37 11 50 25 47 46 23 118 -42
131 l-33 7 0 -82z"/>
</g>
</svg>
